# xmcd
#
# Track frame offsets:
#	150
#	20342
#	39755
#	62255
#	84115
#	103200
#	127087
#	144130
#	162147
#	183632
#
# Disc length: 2695 seconds
#
# Revision: 1
# Processed by: cddbd v1.5PL3 Copyright (c) Steve Scherf et al.
# Submitted via: CDex 1.50Beta5
#
DISCID=720a850a
DTITLE=河合奈保子 - engagement
DYEAR=2001
DGENRE=Pop
TTITLE0=Traveling Life
TTITLE1=言葉はいらない
TTITLE2=さよならを言えるまで
TTITLE3=「愛してる」
TTITLE4=Wings Of My Heart
TTITLE5=エンゲージ
TTITLE6=愛がはじまるとき
TTITLE7=三日月の草原
TTITLE8=最後のひとり旅
TTITLE9=FOR THE FRIENDS
EXTD=
EXTT0=
EXTT1=
EXTT2=
EXTT3=
EXTT4=
EXTT5=
EXTT6=
EXTT7=
EXTT8=
EXTT9=
PLAYORDER=
